<svg version="1.1" id="Layer_1" xmlns="http://www.w3.org/2000/svg" xmlns:xlink="http://www.w3.org/1999/xlink" x="0px" y="0px"
	 width="100%" viewBox="0 0 240 240" enable-background="new 0 0 240 240" xml:space="preserve">
<path fill="none" opacity="1.000000" stroke="none" 
	d="
M140.000000,241.000000 
	C93.333336,241.000000 47.166672,241.000000 1.000006,241.000000 
	C1.000004,161.000000 1.000004,81.000015 1.000002,1.000017 
	C80.999992,1.000011 160.999985,1.000011 240.999969,1.000006 
	C240.999985,80.999985 240.999985,160.999969 241.000000,240.999969 
	C207.500000,241.000000 174.000000,241.000000 140.000000,241.000000 
M92.151871,34.955971 
	C89.764702,35.660378 87.377533,36.364784 84.991386,36.991791 
	C84.991386,36.991791 85.068794,36.991795 84.336555,37.102589 
	C82.588211,38.351875 80.962990,40.419090 79.069504,40.704105 
	C72.116501,41.750702 68.206154,47.254189 62.277046,50.991421 
	C60.812344,52.340855 59.303001,53.645325 57.890697,55.047531 
	C51.900345,60.995090 46.166763,67.154045 42.416264,74.849533 
	C39.643059,80.539764 36.715027,86.071571 34.476776,92.112930 
	C31.744081,99.488853 29.879297,106.963417 29.273769,114.512100 
	C28.733253,121.250305 28.921463,128.104065 30.511059,135.154541 
	C32.219162,142.730606 34.283024,150.078262 37.093895,157.208267 
	C40.256500,165.230453 44.957829,172.498764 50.448284,179.125992 
	C57.433968,187.558044 65.535683,195.009293 75.207466,200.091614 
	C80.772217,203.015778 86.063759,207.396820 93.022064,207.976990 
	C94.811111,208.351379 96.614021,208.669998 98.386589,209.110687 
	C103.495186,210.380753 108.540886,212.491638 113.704079,212.821960 
	C122.317261,213.372971 131.045517,213.734512 139.544678,211.058609 
	C143.179840,209.914108 147.021652,209.430847 150.749420,208.560760 
	C150.932434,208.518051 150.921722,207.645309 151.843597,207.025375 
	C154.197693,206.351517 156.624283,205.862137 158.892899,204.970718 
	C167.121353,201.737503 174.634979,197.135696 181.226593,191.350433 
	C190.243042,183.436966 198.192139,174.717941 203.532089,163.548431 
	C208.234665,153.712082 213.046204,144.172150 213.947357,132.805435 
	C214.246246,132.441391 214.826279,132.058060 214.802811,131.716156 
	C214.247726,123.628937 215.519119,115.653938 213.569260,107.353539 
	C211.769806,99.693352 209.916229,92.139671 206.881882,84.953888 
	C204.825531,80.084137 201.773300,75.634926 199.009018,70.281509 
	C197.673523,69.132195 196.338028,67.982872 194.996613,66.098206 
	C194.870056,65.286163 195.037918,64.190613 194.571289,63.706020 
	C190.008499,58.967377 185.477478,54.180931 180.638184,49.733704 
	C178.501373,47.770016 175.678085,46.553299 172.998108,44.222633 
	C171.632858,43.383572 170.367386,42.228016 168.884949,41.760754 
	C162.770477,39.833496 157.938675,34.598511 150.979675,34.034279 
	C148.721420,33.035381 146.478195,32.000500 144.200073,31.049177 
	C142.434677,30.311960 140.607025,29.049789 138.839066,29.102169 
	C127.372665,29.441900 115.787849,27.555023 104.462799,30.953176 
	C100.803696,32.051113 96.975235,32.580585 93.244370,33.455864 
	C93.067467,33.497364 93.086548,34.374283 92.151871,34.955971 
z"/>
<path fill="#4E6CEF" opacity="1.000000" stroke="none" 
	d="
M151.001221,34.840923 
	C157.938675,34.598511 162.770477,39.833496 168.884949,41.760754 
	C170.367386,42.228016 171.632858,43.383572 173.034637,45.007385 
	C173.714066,47.459167 174.479416,49.092186 174.955399,50.805588 
	C175.255707,51.886692 174.754257,53.286472 175.246704,54.202244 
	C177.896149,59.129257 180.508469,64.109528 183.642288,68.726112 
	C184.864090,70.525993 187.064453,72.814102 189.700684,69.260757 
	C190.715225,67.893242 193.192001,67.610535 195.002533,66.833557 
	C196.338028,67.982872 197.673523,69.132195 199.019653,71.041672 
	C198.188690,74.109291 197.347122,76.416748 196.505539,78.724205 
	C193.156311,79.541420 190.031967,80.846550 188.064453,83.142860 
	C185.154526,86.539055 187.649857,89.149811 190.503830,91.373520 
	C190.997025,91.757805 190.770401,92.959824 191.088486,93.691925 
	C193.377045,98.959129 197.811218,100.334007 202.416611,97.252823 
	C205.509827,100.315025 206.112610,103.397934 203.636215,107.404198 
	C202.583923,109.106567 202.455505,112.250633 203.303223,114.099358 
	C206.261749,120.551315 209.829956,126.723717 213.166443,133.002365 
	C213.046204,144.172150 208.234665,153.712082 203.532089,163.548431 
	C198.192139,174.717941 190.243042,183.436966 181.226593,191.350433 
	C174.634979,197.135696 167.121353,201.737503 158.892899,204.970718 
	C156.624283,205.862137 154.197693,206.351517 150.957581,207.029617 
	C131.047302,207.075592 112.023041,207.117340 92.998772,207.159073 
	C86.063759,207.396820 80.772217,203.015778 75.207466,200.091614 
	C65.535683,195.009293 57.433968,187.558044 50.448284,179.125992 
	C44.957829,172.498764 40.256500,165.230453 37.093895,157.208267 
	C34.283024,150.078262 32.219162,142.730606 30.511059,135.154541 
	C28.921463,128.104065 28.733253,121.250305 29.273769,114.512100 
	C29.879297,106.963417 31.744081,99.488853 34.476776,92.112930 
	C36.715027,86.071571 39.643059,80.539764 42.416264,74.849533 
	C46.166763,67.154045 51.900345,60.995090 57.890697,55.047531 
	C59.303001,53.645325 60.812344,52.340855 63.000191,50.993877 
	C68.722298,53.611637 69.243584,58.891521 70.939095,63.398251 
	C72.448631,67.410622 73.583817,71.569992 74.756828,75.700668 
	C75.559906,78.528679 76.568901,81.401199 76.688171,84.286781 
	C76.778458,86.471382 75.398682,88.674408 75.038124,90.927635 
	C73.791962,98.715317 80.168419,103.999077 81.874023,110.860954 
	C82.104256,111.787216 84.370049,113.054985 85.224403,112.768143 
	C86.339241,112.393814 86.986336,110.626358 88.081474,109.118538 
	C89.239159,109.047409 90.866714,108.947418 92.422668,108.851822 
	C93.302490,106.487411 94.966461,104.217690 94.693169,102.211937 
	C94.322876,99.494308 92.373825,97.016617 91.305817,94.354248 
	C90.981491,93.545753 90.945457,92.081566 91.443367,91.583527 
	C92.998535,90.027985 94.872108,88.790787 96.304398,87.677299 
	C96.994064,89.411423 97.729462,91.438408 98.597168,93.407097 
	C100.720329,98.224159 103.887276,102.376976 103.257706,108.447601 
	C102.657532,114.234703 108.721382,118.773499 114.650513,119.075432 
	C118.794891,119.286484 122.903259,120.204575 127.916626,120.936684 
	C126.846153,123.841133 126.282578,125.563293 125.583176,127.228401 
	C124.046707,130.886414 122.612083,134.602325 120.816338,138.132034 
	C119.031776,141.639771 117.511703,145.783691 114.622299,148.052246 
	C112.679718,149.577423 111.225029,151.121521 109.885849,153.039124 
	C106.172279,158.356720 105.760361,164.647507 107.507462,170.178848 
	C109.142662,175.355865 113.261337,179.748459 116.354462,184.591843 
	C114.562157,188.112656 111.688660,191.163208 114.690849,196.738907 
	C118.198402,203.253143 125.458229,205.011475 130.706665,200.710464 
	C133.703720,198.254395 137.510040,195.544388 141.086121,195.344116 
	C145.774734,195.081528 148.230301,192.757614 151.107407,189.944458 
	C153.163483,187.934128 156.072937,186.789139 158.096298,184.755325 
	C159.507080,183.337234 160.456818,181.155472 160.900238,179.156815 
	C161.461487,176.627014 160.288727,173.126831 161.626312,171.456955 
	C167.218079,164.476013 174.366608,159.231827 183.700043,159.176956 
	C188.319473,159.149780 191.695786,157.949570 194.654724,154.642715 
	C196.544250,152.531021 198.910980,150.804993 200.573746,148.545441 
	C201.794373,146.886719 203.138916,144.474930 202.813400,142.693878 
	C202.077621,138.667953 199.959381,134.907166 199.094330,130.889771 
	C197.363297,122.850609 191.482773,118.069260 183.531860,119.071419 
	C181.760040,119.294746 180.109344,120.838974 178.370911,120.902710 
	C172.069046,121.133751 165.753571,120.993759 159.464783,120.993759 
	C159.208252,115.551346 157.940567,112.889435 154.787781,109.475853 
	C152.242981,106.720573 149.957550,106.138672 147.403992,109.334801 
	C143.892563,113.729820 141.741394,108.530914 139.085449,107.824120 
	C137.309555,107.351509 135.313507,104.958084 138.404236,102.599281 
	C138.865158,102.247520 138.441971,99.840004 137.717636,98.985466 
	C134.302551,94.956482 128.316467,96.404320 124.937042,102.861832 
	C124.378899,103.928368 122.959259,104.544075 121.937759,105.368126 
	C121.536163,104.994621 121.134567,104.621117 120.732971,104.247604 
	C121.073723,101.864883 121.580513,99.491234 121.711456,97.097031 
	C121.861252,94.358360 121.901642,91.575119 121.583618,88.858765 
	C121.140556,85.074516 119.613747,81.317284 122.949059,77.944534 
	C123.976799,76.905251 124.387993,75.268684 125.147697,73.943581 
	C125.348289,73.593689 125.795395,73.385124 126.453568,72.846107 
	C126.829117,74.362808 127.124573,75.556068 127.215668,75.923965 
	C128.941833,76.233185 130.199356,76.687294 131.425644,76.614586 
	C132.684128,76.539970 134.189377,76.269333 135.076660,75.497925 
	C135.994263,74.700142 136.964600,73.069298 136.763550,72.023659 
	C135.463974,65.264519 133.850342,58.565750 132.610840,53.053131 
	C130.974075,50.822521 130.036865,49.283165 128.822311,48.007965 
	C128.269760,47.427818 126.670662,46.871464 126.391106,47.150558 
	C122.344841,51.190098 119.888596,45.990513 116.754341,45.720306 
	C109.036530,45.054955 101.234970,45.349392 93.466911,45.330288 
	C93.214165,45.329662 93.048462,46.223652 92.691994,46.519897 
	C88.938782,49.639160 84.906250,51.958946 81.162231,51.096466 
	C78.523590,48.638470 76.924026,47.148418 74.394058,44.791653 
	C78.214439,43.856045 81.442856,43.065407 85.068794,42.177418 
	C85.068794,40.612499 85.068794,38.802147 85.068794,36.991795 
	C85.068794,36.991795 84.991386,36.991791 85.460068,37.002121 
	C97.363205,37.012455 108.797668,37.012455 120.253052,37.012455 
	C121.434998,39.527939 121.820229,43.882702 125.723961,39.282887 
	C126.104187,38.834866 128.112396,38.932747 128.443420,39.412735 
	C130.799911,42.829712 132.376999,40.254799 134.279404,38.945564 
	C135.490311,38.112225 136.976410,37.690304 138.282990,36.980549 
	C139.235672,36.463043 140.096741,35.776871 141.449249,35.101715 
	C144.933655,34.972008 147.967438,34.906467 151.001221,34.840923 
M152.560959,38.967506 
	C150.237610,38.178410 147.914276,37.389313 145.250717,36.484665 
	C145.040924,39.326931 144.931808,40.805241 144.881851,41.482201 
	C143.261307,43.063137 141.255142,44.094227 141.173904,45.259510 
	C140.818405,50.359001 141.020859,55.497387 141.020859,61.288692 
	C146.769928,59.579052 151.893646,58.055374 156.622437,56.649139 
	C157.036102,52.534649 157.380356,49.110569 157.798691,44.949799 
	C156.805496,43.623337 155.083740,41.323818 152.560959,38.967506 
M110.158836,42.938255 
	C113.043297,42.938255 115.927757,42.938255 120.117630,42.938255 
	C118.682991,40.961010 118.046082,39.228367 117.270088,39.163658 
	C114.130432,38.901840 110.430138,38.025406 110.158836,42.938255 
z"/>
<path fill="#0A7E07" opacity="1.000000" stroke="none" 
	d="
M84.702675,37.047192 
	C85.068794,38.802147 85.068794,40.612499 85.068794,42.177418 
	C81.442856,43.065407 78.214439,43.856045 74.394058,44.791653 
	C76.924026,47.148418 78.523590,48.638470 81.162231,51.096466 
	C84.906250,51.958946 88.938782,49.639160 92.691994,46.519897 
	C93.048462,46.223652 93.214165,45.329662 93.466911,45.330288 
	C101.234970,45.349392 109.036530,45.054955 116.754341,45.720306 
	C119.888596,45.990513 122.344841,51.190098 126.391106,47.150558 
	C126.670662,46.871464 128.269760,47.427818 128.822311,48.007965 
	C130.036865,49.283165 130.974075,50.822521 132.610840,53.053131 
	C133.850342,58.565750 135.463974,65.264519 136.763550,72.023659 
	C136.964600,73.069298 135.994263,74.700142 135.076660,75.497925 
	C134.189377,76.269333 132.684128,76.539970 131.425644,76.614586 
	C130.199356,76.687294 128.941833,76.233185 127.215668,75.923965 
	C127.124573,75.556068 126.829117,74.362808 126.453568,72.846107 
	C125.795395,73.385124 125.348289,73.593689 125.147697,73.943581 
	C124.387993,75.268684 123.976799,76.905251 122.949059,77.944534 
	C119.613747,81.317284 121.140556,85.074516 121.583618,88.858765 
	C121.901642,91.575119 121.861252,94.358360 121.711456,97.097031 
	C121.580513,99.491234 121.073723,101.864883 120.732971,104.247604 
	C121.134567,104.621117 121.536163,104.994621 121.937759,105.368126 
	C122.959259,104.544075 124.378899,103.928368 124.937042,102.861832 
	C128.316467,96.404320 134.302551,94.956482 137.717636,98.985466 
	C138.441971,99.840004 138.865158,102.247520 138.404236,102.599281 
	C135.313507,104.958084 137.309555,107.351509 139.085449,107.824120 
	C141.741394,108.530914 143.892563,113.729820 147.403992,109.334801 
	C149.957550,106.138672 152.242981,106.720573 154.787781,109.475853 
	C157.940567,112.889435 159.208252,115.551346 159.464783,120.993759 
	C165.753571,120.993759 172.069046,121.133751 178.370911,120.902710 
	C180.109344,120.838974 181.760040,119.294746 183.531860,119.071419 
	C191.482773,118.069260 197.363297,122.850609 199.094330,130.889771 
	C199.959381,134.907166 202.077621,138.667953 202.813400,142.693878 
	C203.138916,144.474930 201.794373,146.886719 200.573746,148.545441 
	C198.910980,150.804993 196.544250,152.531021 194.654724,154.642715 
	C191.695786,157.949570 188.319473,159.149780 183.700043,159.176956 
	C174.366608,159.231827 167.218079,164.476013 161.626312,171.456955 
	C160.288727,173.126831 161.461487,176.627014 160.900238,179.156815 
	C160.456818,181.155472 159.507080,183.337234 158.096298,184.755325 
	C156.072937,186.789139 153.163483,187.934128 151.107407,189.944458 
	C148.230301,192.757614 145.774734,195.081528 141.086121,195.344116 
	C137.510040,195.544388 133.703720,198.254395 130.706665,200.710464 
	C125.458229,205.011475 118.198402,203.253143 114.690849,196.738907 
	C111.688660,191.163208 114.562157,188.112656 116.354462,184.591843 
	C113.261337,179.748459 109.142662,175.355865 107.507462,170.178848 
	C105.760361,164.647507 106.172279,158.356720 109.885849,153.039124 
	C111.225029,151.121521 112.679718,149.577423 114.622299,148.052246 
	C117.511703,145.783691 119.031776,141.639771 120.816338,138.132034 
	C122.612083,134.602325 124.046707,130.886414 125.583176,127.228401 
	C126.282578,125.563293 126.846153,123.841133 127.916626,120.936684 
	C122.903259,120.204575 118.794891,119.286484 114.650513,119.075432 
	C108.721382,118.773499 102.657532,114.234703 103.257706,108.447601 
	C103.887276,102.376976 100.720329,98.224159 98.597168,93.407097 
	C97.729462,91.438408 96.994064,89.411423 96.304398,87.677299 
	C94.872108,88.790787 92.998535,90.027985 91.443367,91.583527 
	C90.945457,92.081566 90.981491,93.545753 91.305817,94.354248 
	C92.373825,97.016617 94.322876,99.494308 94.693169,102.211937 
	C94.966461,104.217690 93.302490,106.487411 92.422668,108.851822 
	C90.866714,108.947418 89.239159,109.047409 88.081474,109.118538 
	C86.986336,110.626358 86.339241,112.393814 85.224403,112.768143 
	C84.370049,113.054985 82.104256,111.787216 81.874023,110.860954 
	C80.168419,103.999077 73.791962,98.715317 75.038124,90.927635 
	C75.398682,88.674408 76.778458,86.471382 76.688171,84.286781 
	C76.568901,81.401199 75.559906,78.528679 74.756828,75.700668 
	C73.583817,71.569992 72.448631,67.410622 70.939095,63.398251 
	C69.243584,58.891521 68.722298,53.611637 63.360481,50.914944 
	C68.206154,47.254189 72.116501,41.750702 79.069504,40.704105 
	C80.962990,40.419090 82.588211,38.351875 84.702675,37.047192 
z"/>
<path fill="#0A7E07" opacity="1.000000" stroke="none" 
	d="
M213.556900,132.903900 
	C209.829956,126.723717 206.261749,120.551315 203.303223,114.099358 
	C202.455505,112.250633 202.583923,109.106567 203.636215,107.404198 
	C206.112610,103.397934 205.509827,100.315025 202.416611,97.252823 
	C197.811218,100.334007 193.377045,98.959129 191.088486,93.691925 
	C190.770401,92.959824 190.997025,91.757805 190.503830,91.373520 
	C187.649857,89.149811 185.154526,86.539055 188.064453,83.142860 
	C190.031967,80.846550 193.156311,79.541420 196.505539,78.724205 
	C197.347122,76.416748 198.188690,74.109291 199.098358,71.399734 
	C201.773300,75.634926 204.825531,80.084137 206.881882,84.953888 
	C209.916229,92.139671 211.769806,99.693352 213.569260,107.353539 
	C215.519119,115.653938 214.247726,123.628937 214.802811,131.716156 
	C214.826279,132.058060 214.246246,132.441391 213.556900,132.903900 
z"/>
<path fill="#EEEEEE" opacity="1.000000" stroke="none" 
	d="
M150.990448,34.437599 
	C147.967438,34.906467 144.933655,34.972008 140.984589,35.027802 
	C124.384323,34.966084 108.699341,34.914112 93.014359,34.862144 
	C93.086548,34.374283 93.067467,33.497364 93.244370,33.455864 
	C96.975235,32.580585 100.803696,32.051113 104.462799,30.953176 
	C115.787849,27.555023 127.372665,29.441900 138.839066,29.102169 
	C140.607025,29.049789 142.434677,30.311960 144.200073,31.049177 
	C146.478195,32.000500 148.721420,33.035381 150.990448,34.437599 
z"/>
<path fill="#EEEEEE" opacity="1.000000" stroke="none" 
	d="
M93.010422,207.568024 
	C112.023041,207.117340 131.047302,207.075592 150.536407,207.096466 
	C150.921722,207.645309 150.932434,208.518051 150.749420,208.560760 
	C147.021652,209.430847 143.179840,209.914108 139.544678,211.058609 
	C131.045517,213.734512 122.317261,213.372971 113.704079,212.821960 
	C108.540886,212.491638 103.495186,210.380753 98.386589,209.110687 
	C96.614021,208.669998 94.811111,208.351379 93.010422,207.568024 
z"/>
<path fill="#0A7E07" opacity="1.000000" stroke="none" 
	d="
M194.999573,66.465881 
	C193.192001,67.610535 190.715225,67.893242 189.700684,69.260757 
	C187.064453,72.814102 184.864090,70.525993 183.642288,68.726112 
	C180.508469,64.109528 177.896149,59.129257 175.246704,54.202244 
	C174.754257,53.286472 175.255707,51.886692 174.955399,50.805588 
	C174.479416,49.092186 173.714066,47.459167 173.118805,45.394806 
	C175.678085,46.553299 178.501373,47.770016 180.638184,49.733704 
	C185.477478,54.180931 190.008499,58.967377 194.571289,63.706020 
	C195.037918,64.190613 194.870056,65.286163 194.999573,66.465881 
z"/>
<path fill="#0A7E07" opacity="1.000000" stroke="none" 
	d="
M92.583115,34.909058 
	C108.699341,34.914112 124.384323,34.966084 140.533966,35.091965 
	C140.096741,35.776871 139.235672,36.463043 138.282990,36.980549 
	C136.976410,37.690304 135.490311,38.112225 134.279404,38.945564 
	C132.376999,40.254799 130.799911,42.829712 128.443420,39.412735 
	C128.112396,38.932747 126.104187,38.834866 125.723961,39.282887 
	C121.820229,43.882702 121.434998,39.527939 120.253052,37.012455 
	C108.797668,37.012455 97.363205,37.012455 85.459549,37.040825 
	C87.377533,36.364784 89.764702,35.660378 92.583115,34.909058 
z"/>
<path fill="#EEEEEE" opacity="1.000000" stroke="none" 
	d="
M152.961456,38.995903 
	C155.083740,41.323818 156.805496,43.623337 157.798691,44.949799 
	C157.380356,49.110569 157.036102,52.534649 156.622437,56.649139 
	C151.893646,58.055374 146.769928,59.579052 141.020859,61.288692 
	C141.020859,55.497387 140.818405,50.359001 141.173904,45.259510 
	C141.255142,44.094227 143.261307,43.063137 144.881851,41.482201 
	C144.931808,40.805241 145.040924,39.326931 145.250717,36.484665 
	C147.914276,37.389313 150.237610,38.178410 152.961456,38.995903 
z"/>
<path fill="#0A7E07" opacity="1.000000" stroke="none" 
	d="
M109.761337,42.800835 
	C110.430138,38.025406 114.130432,38.901840 117.270088,39.163658 
	C118.046082,39.228367 118.682991,40.961010 120.117630,42.938255 
	C115.927757,42.938255 113.043297,42.938255 109.761337,42.800835 
z"/>
</svg>